<svg height="511pt" viewBox="0 0 511.99981 511" width="511pt" xmlns="http://www.w3.org/2000/svg"><path d="m428.53125 117.324219-28.542969-86.613281c-11.59375-13.140626-22.804687-19.722657-33.859375-20.203126-36.066406-1.535156-70.441406 49.882813-110.738281 49.882813-40.101563 0-73.511719-49.632813-108.738281-49.882813-11.652344-.078124-23.496094 6.195313-35.855469 20.203126l-28.542969 86.613281c-24.453125 16.25-40.582031 34.898437-45.0625 52.804687h436.402344c-4.480469-17.90625-20.613281-36.554687-45.0625-52.804687zm0 0" fill="#ff0300"/><path d="m375.105469 397.875v-48.175781c0-27.28125-9.125-52.441407-24.5-72.574219h-190.425781c-15.375 20.132812-24.503907 45.292969-24.503907 72.574219v48.175781c-138.90625-138.339844-156.886719-29.769531-76.175781 50.949219 20.300781 20.292969 51.871094 39.121093 77.253906 52.515625h237.277344c25.371094-13.386719 56.957031-32.226563 77.253906-52.515625 83.53125-83.53125 65.902344-192.449219-76.179687-50.949219zm0 0" fill="#ff0300"/><g fill="#e9fffb"><path d="m115.722656 30.460938c27.546875 0 49.882813 22.335937 49.882813 49.882812 0 27.542969-22.335938 49.878906-49.882813 49.878906-27.472656 0-49.878906-22.265625-49.878906-49.878906 0-27.722656 22.519531-49.882812 49.878906-49.882812zm0 0"/><path d="m444.941406 80.34375c0 27.578125-22.375 49.878906-49.882812 49.878906-27.542969 0-49.878906-22.335937-49.878906-49.878906 0-27.546875 22.335937-49.882812 49.878906-49.882812 27.410156 0 49.882812 22.210937 49.882812 49.882812zm0 0"/><path d="m473.59375 170.128906c.847656 3.351563 1.277344 6.683594 1.277344 9.976563 0 49.953125-98.941406 109.738281-219.480469 109.738281-120.195313 0-219.476563-59.644531-219.476563-109.738281 0-3.292969.429688-6.625 1.277344-9.976563zm0 0"/></g><path d="m305.273438 110.269531c0 5.511719-4.464844 9.976563-9.976563 9.976563-5.507813 0-9.976563-4.464844-9.976563-9.976563 0-5.507812 4.46875-9.976562 9.976563-9.976562 5.511719 0 9.976563 4.46875 9.976563 9.976562zm0 0"/><path d="m225.464844 110.269531c0 5.511719-4.46875 9.976563-9.976563 9.976563-5.511719 0-9.976562-4.464844-9.976562-9.976563 0-5.507812 4.464843-9.976562 9.976562-9.976562 5.507813 0 9.976563 4.46875 9.976563 9.976562zm0 0"/><path d="m205.511719 349.699219c0 5.511719-4.46875 9.976562-9.976563 9.976562-5.511718 0-9.976562-4.464843-9.976562-9.976562 0-5.507813 4.464844-9.972657 9.976562-9.972657 5.507813 0 9.976563 4.464844 9.976563 9.972657zm0 0"/><path d="m501.921875 328.082031c-12.28125-12.308593-43.421875-21.316406-116.839844 46.398438v-24.78125c0-23.917969-6.398437-46.78125-18.582031-66.90625 70.328125-22.527344 118.34375-63.695313 118.34375-102.6875 0-3.9375-.5-7.949219-1.46875-11.921875-.011719-.0625-.027344-.128906-.042969-.195313-.023437-.09375-.039062-.1875-.0625-.28125-4.484375-17.929687-18.195312-35.789062-39.875-52.089843 7.414063-10.167969 11.523438-22.523438 11.523438-35.273438 0-29.609375-21.230469-54.308594-49.996094-59.027344-12.601563-13.398437-25.179687-20.203125-38.367187-20.773437-21.175782-.886719-40.511719 12.597656-59.214844 25.660156-17.050782 11.902344-34.679688 24.210937-51.949219 24.210937-17.605469 0-35.257813-12.375-52.332031-24.34375-17.8125-12.484374-36.230469-25.394531-56.339844-25.539062-14.214844-.066406-27.59375 6.71875-40.847656 20.78125-28.769532 4.71875-50.003906 29.421875-50.003906 59.03125 0 12.75 4.109374 25.105469 11.519531 35.273438-21.675781 16.296874-35.386719 34.15625-39.867188 52.066406-.023437.09375-.039062.1875-.0625.28125-.015625.078125-.035156.152344-.050781.230468-.964844 3.984376-1.46875 7.984376-1.46875 11.910157 0 38.992187 48.019531 80.160156 118.347656 102.6875-12.183594 20.125-18.585937 42.988281-18.585937 66.90625v24.808593c-71.527344-65.726562-102.296875-56.511718-114.539063-44.238281-22.828125 22.875-3.925781 80.398438 41.285156 125.613281 13.050782 13.042969 30.496094 25.382813 46.703126 35.480469h-89.171876c-5.511718 0-9.976562 4.46875-9.976562 9.976563 0 5.507812 4.464844 9.976562 9.976562 9.976562h490.832032c5.507812 0 9.976562-4.46875 9.976562-9.976562 0-5.507813-4.46875-9.976563-9.976562-9.976563h-89.171875c16.203125-10.097656 33.652343-22.4375 46.703125-35.484375 30.441406-30.441406 73.414062-97.90625 43.582031-127.796875zm-186.671875 31.59375c-5.511719 0-9.976562 4.46875-9.976562 9.976563v121.710937h-99.761719v-101.757812c0-5.507813-4.46875-9.976563-9.976563-9.976563-5.511718 0-9.976562 4.46875-9.976562 9.976563v101.757812h-39.90625v-141.664062c0-22.070313 6.4375-43.078125 18.636718-61.167969 29.351563 7.488281 59.960938 11.289062 91.101563 11.289062 31.144531 0 61.753906-3.800781 91.101563-11.289062 12.203124 18.089844 18.636718 39.097656 18.636718 61.167969v141.664062h-39.902344v-121.710937c0-5.507813-4.46875-9.976563-9.976562-9.976563zm119.714844-279.332031c0 11.242188-4.785156 22.027344-13.128906 29.585938-7.351563 6.652343-16.859376 10.316406-26.777344 10.316406-22.003906 0-39.902344-17.898438-39.902344-39.902344 0-23.136719 19.707031-41.410156 42.589844-39.804688.90625.222657 1.832031.316407 2.761718.28125 19.746094 2.664063 34.457032 19.394532 34.457032 39.523438zm-319.242188-39.90625c22.003906 0 39.90625 17.902344 39.90625 39.90625s-17.902344 39.902344-39.90625 39.902344c-22.234375 0-39.902344-18.097656-39.902344-39.902344 0-22.320312 17.929688-39.90625 39.902344-39.90625zm-33.832031 89.277344c9.914063 6.804687 21.667969 10.484375 33.832031 10.484375 33.007813 0 59.859375-26.851563 59.859375-59.855469 0-26.382812-17.164062-48.816406-40.902343-56.765625 3.992187-2.066406 7.894531-3.09375 11.75-3.09375h.148437c13.890625.097656 29.015625 10.699219 45.027344 21.925781 19.609375 13.742188 39.882812 27.957032 63.785156 27.957032 23.546875 0 43.792969-14.136719 63.371094-27.804688 16.71875-11.675781 32.507812-22.664062 46.933593-22.085938 3.363282.144532 6.855469 1.1875 10.457032 3.085938-23.765625 7.933594-40.949219 30.378906-40.949219 56.78125 0 33.003906 26.851563 59.855469 59.855469 59.855469 12.164062 0 23.921875-3.679688 33.835937-10.484375 13.59375 9.839844 23.746094 20.253906 29.753907 30.4375h-406.515626c6.007813-10.175782 16.160157-20.59375 29.757813-30.4375zm-36 50.378906h419.003906c0 42.480469-92.914062 99.773438-209.503906 99.773438-116.691406 0-209.5-57.398438-209.5-99.773438zm-20.605469 164.269531c7.21875-7.234375 37.429688-4.234375 100.414063 57.675781v81.914063c-18.71875-10.628906-42.929688-25.972656-59.148438-42.179687-31.085937-31.09375-56.234375-82.417969-41.265625-97.410157zm359.796875 139.589844v-81.914063c64.757813-63.6875 95.476563-67.117187 102.714844-59.863281 15.371094 15.402344-12.570313 68.601563-43.566406 99.59375-16.214844 16.207031-40.425781 31.554688-59.148438 42.183594zm0 0"/><path d="m195.535156 220.011719h119.714844c5.507812 0 9.976562-4.46875 9.976562-9.976563 0-5.511718-4.46875-9.976562-9.976562-9.976562h-119.714844c-5.511718 0-9.976562 4.464844-9.976562 9.976562 0 5.507813 4.464844 9.976563 9.976562 9.976563zm0 0"/><path d="m395.058594 60.390625c-5.507813 0-9.976563 4.464844-9.976563 9.976563v19.953124c0 5.507813 4.46875 9.972657 9.976563 9.972657 5.511718 0 9.976562-4.464844 9.976562-9.972657v-19.953124c0-5.511719-4.464844-9.976563-9.976562-9.976563zm0 0"/><path d="m115.722656 100.292969c5.511719 0 9.976563-4.464844 9.976563-9.972657v-19.953124c0-5.511719-4.464844-9.976563-9.976563-9.976563-5.507812 0-9.972656 4.464844-9.972656 9.976563v19.953124c0 5.507813 4.464844 9.972657 9.972656 9.972657zm0 0"/></svg>